<svg xmlns="http://www.w3.org/2000/svg" width="402" height="680" viewBox="0 0 402 680" role="img" aria-labelledby="title desc">
  <title id="title">Jatre Namma Pride lost and found screen</title>
  <desc id="desc">Lost and found screen with category filters and item cards for a wallet, resolved bike keys, and a blue backpack.</desc>
  <defs>
    <filter id="shadow" x="-20%" y="-20%" width="140%" height="140%">
      <feDropShadow dx="0" dy="5" stdDeviation="7" flood-color="#000000" flood-opacity="0.10"/>
    </filter>
  </defs>
  <rect width="402" height="680" fill="#fff9f0"/>
  <rect x="0" y="0" width="402" height="68" fill="#ffffff"/>
  <circle cx="34" cy="33" r="20" fill="#f8fafc"/>
  <path d="M37 26 L30 33 L37 40" fill="none" stroke="#ef4b2a" stroke-width="2" stroke-linecap="round" stroke-linejoin="round"/>
  <text x="67" y="40" font-family="Inter, Arial, sans-serif" font-size="20" font-weight="900" fill="#111217">Lost &amp; Found</text>

  <rect x="21" y="90" width="65" height="33" rx="16" fill="#ef4b2a"/>
  <text x="43" y="111" font-family="Inter, Arial, sans-serif" font-size="11" font-weight="900" fill="#ffffff">ALL</text>
  <rect x="95" y="90" width="76" height="33" rx="16" fill="#ffffff" stroke="#edf0f4"/>
  <text x="119" y="111" font-family="Inter, Arial, sans-serif" font-size="11" font-weight="900" fill="#9aa4b2">LOST</text>
  <rect x="181" y="90" width="86" height="33" rx="16" fill="#ffffff" stroke="#edf0f4"/>
  <text x="210" y="111" font-family="Inter, Arial, sans-serif" font-size="11" font-weight="900" fill="#9aa4b2">FOUND</text>

  <g filter="url(#shadow)">
    <rect x="21" y="146" width="360" height="157" rx="28" fill="#ffffff"/>
    <rect x="44" y="169" width="58" height="24" rx="12" fill="#e9f2ff" stroke="#d3e5ff"/>
    <text x="62" y="184" font-family="Inter, Arial, sans-serif" font-size="9" font-weight="900" fill="#2563eb">Found</text>
    <rect x="44" y="207" width="71" height="72" rx="18" fill="#f8fafc" stroke="#edf0f4"/>
    <rect x="69" y="233" width="27" height="20" rx="4" fill="#8b5a58"/>
    <path d="M72 234 C72 223 93 223 93 234" fill="none" stroke="#8b5a58" stroke-width="3"/>
    <rect x="68" y="239" width="29" height="17" rx="2" fill="#ac7b80"/>
    <text x="136" y="230" font-family="Inter, Arial, sans-serif" font-size="18" font-weight="900" fill="#24272d">Brown Leather Wallet</text>
    <circle cx="142" cy="247" r="4" fill="none" stroke="#9aa4b2" stroke-width="1.4"/>
    <text x="154" y="251" font-family="Inter, Arial, sans-serif" font-size="12" font-weight="900" fill="#9aa4b2">2 HOURS AGO</text>
  </g>

  <g opacity="0.46">
    <rect x="21" y="324" width="360" height="156" rx="28" fill="#ffffff" stroke="#111217" stroke-opacity="0.65"/>
    <rect x="44" y="346" width="58" height="24" rx="12" fill="#f3f3f3" stroke="#e5e5e5"/>
    <text x="62" y="361" font-family="Inter, Arial, sans-serif" font-size="9" font-weight="900" fill="#888888">Found</text>
    <rect x="276" y="346" width="82" height="24" rx="12" fill="#f3f3f3"/>
    <circle cx="291" cy="358" r="4" fill="none" stroke="#888888" stroke-width="1.4"/>
    <text x="303" y="361" font-family="Inter, Arial, sans-serif" font-size="9" font-weight="900" fill="#888888">RESOLVED</text>
    <rect x="44" y="386" width="71" height="72" rx="18" fill="#f8fafc" stroke="#edf0f4"/>
    <path d="M73 432 L92 413" stroke="#bfbfbf" stroke-width="8" stroke-linecap="round"/>
    <circle cx="91" cy="411" r="11" fill="#d8d8d8"/>
    <text x="136" y="406" font-family="Inter, Arial, sans-serif" font-size="18" font-weight="900" fill="#5f5f5f">Bike Keys (Hero)</text>
    <circle cx="142" cy="424" r="4" fill="none" stroke="#9aa4b2" stroke-width="1.4"/>
    <text x="154" y="428" font-family="Inter, Arial, sans-serif" font-size="12" font-weight="900" fill="#8d8d8d">5 HOURS AGO</text>
  </g>

  <g filter="url(#shadow)">
    <rect x="21" y="503" width="360" height="157" rx="28" fill="#ffffff"/>
    <rect x="44" y="526" width="58" height="24" rx="12" fill="#fff0f0" stroke="#ffd8d8"/>
    <text x="64" y="541" font-family="Inter, Arial, sans-serif" font-size="9" font-weight="900" fill="#e11d48">Lost</text>
    <rect x="44" y="566" width="71" height="72" rx="18" fill="#f8fafc" stroke="#edf0f4"/>
    <rect x="66" y="586" width="26" height="38" rx="10" fill="#ff3d7f"/>
    <path d="M71 587 C72 576 88 576 89 587" fill="none" stroke="#ffb11a" stroke-width="4"/>
    <text x="136" y="590" font-family="Inter, Arial, sans-serif" font-size="18" font-weight="900" fill="#24272d">Blue Backpack</text>
    <circle cx="142" cy="607" r="4" fill="none" stroke="#9aa4b2" stroke-width="1.4"/>
    <text x="154" y="611" font-family="Inter, Arial, sans-serif" font-size="12" font-weight="900" fill="#9aa4b2">JUST NOW</text>
  </g>

  <rect x="0" y="612" width="402" height="68" fill="#ffffff"/>
  <rect x="59" y="632" width="12" height="14" rx="2" fill="none" stroke="#d7dde7" stroke-width="2"/>
  <path d="M56 637 H74 M60 629 V634 M70 629 V634" stroke="#d7dde7" stroke-width="2" stroke-linecap="round"/>
  <path d="M148 632 L155 629 L162 632 V648 L155 645 L148 648 Z" fill="none" stroke="#d7dde7" stroke-width="2"/>
  <circle cx="244" cy="639" r="20" fill="#fff4e8"/>
  <circle cx="244" cy="637" r="7" fill="none" stroke="#ef4b2a" stroke-width="2"/>
  <path d="M249 642 L254 647" stroke="#ef4b2a" stroke-width="2" stroke-linecap="round"/>
  <path d="M327 632 H335 C338 632 340 634 340 637 V650 H332 C329 650 327 648 327 645 Z M340 637 C340 634 342 632 345 632 H352 V645 C352 648 350 650 347 650 H340 Z" fill="none" stroke="#d7dde7" stroke-width="2"/>
</svg>
