<svg xmlns="http://www.w3.org/2000/svg" width="398" height="680" viewBox="0 0 398 680" role="img" aria-labelledby="title desc">
  <title id="title">Jatre Namma Pride schedule screen</title>
  <desc id="desc">Schedule screen showing cards for the grand chariot procession, Yakshagana play, and fireworks display.</desc>
  <defs>
    <filter id="shadow" x="-20%" y="-20%" width="140%" height="140%">
      <feDropShadow dx="0" dy="5" stdDeviation="7" flood-color="#000000" flood-opacity="0.10"/>
    </filter>
  </defs>
  <rect width="398" height="680" fill="#fff9f0"/>
  <rect y="0" width="398" height="14" fill="#f8fafc"/>

  <g filter="url(#shadow)">
    <rect x="18" y="36" width="362" height="164" rx="30" fill="#ffffff"/>
    <path d="M332 36 H380 V59 H354 C342 59 332 49 332 37 Z" fill="#ec8390"/>
    <text x="346" y="52" font-family="Inter, Arial, sans-serif" font-size="8" font-weight="900" fill="#ffffff">LIVE</text>
    <rect x="40" y="58" width="58" height="72" rx="14" fill="#fffaf4" stroke="#ffe2bd"/>
    <text x="59" y="92" font-family="Inter, Arial, sans-serif" font-size="18" font-weight="900" fill="#ef4b2a">10</text>
    <text x="62" y="110" font-family="Inter, Arial, sans-serif" font-size="9" font-weight="800" fill="#9aa4b2">AM</text>
    <text x="112" y="74" font-family="Inter, Arial, sans-serif" font-size="17" font-weight="900" fill="#24272d">Grand Chariot Procession</text>
    <circle cx="117" cy="94" r="4" fill="none" stroke="#ef4b2a" stroke-width="1.3"/>
    <circle cx="117" cy="94" r="1.1" fill="#ef4b2a"/>
    <text x="130" y="99" font-family="Inter, Arial, sans-serif" font-size="12" font-weight="800" fill="#9aa4b2">Main Temple Grounds</text>
    <rect x="40" y="151" width="132" height="26" rx="13" fill="#fff5eb"/>
    <circle cx="56" cy="164" r="4" fill="none" stroke="#ef4b2a" stroke-width="1.4"/>
    <text x="67" y="168" font-family="Inter, Arial, sans-serif" font-size="10" font-weight="900" fill="#ef4b2a">10:00 AM - 12:00 PM</text>
    <text x="297" y="168" font-family="Inter, Arial, sans-serif" font-size="11" font-weight="900" fill="#24272d">Remind</text>
    <path d="M347 158 L353 164 L347 170" fill="none" stroke="#24272d" stroke-width="1.5" stroke-linecap="round" stroke-linejoin="round"/>
  </g>

  <g filter="url(#shadow)">
    <rect x="18" y="222" width="362" height="164" rx="30" fill="#ffffff"/>
    <rect x="40" y="244" width="58" height="72" rx="14" fill="#fffaf4" stroke="#ffe2bd"/>
    <text x="63" y="278" font-family="Inter, Arial, sans-serif" font-size="18" font-weight="900" fill="#ef4b2a">2</text>
    <text x="62" y="296" font-family="Inter, Arial, sans-serif" font-size="9" font-weight="800" fill="#9aa4b2">PM</text>
    <text x="112" y="260" font-family="Inter, Arial, sans-serif" font-size="17" font-weight="900" fill="#24272d">Yakshagana Play</text>
    <circle cx="117" cy="280" r="4" fill="none" stroke="#ef4b2a" stroke-width="1.3"/>
    <circle cx="117" cy="280" r="1.1" fill="#ef4b2a"/>
    <text x="130" y="285" font-family="Inter, Arial, sans-serif" font-size="12" font-weight="800" fill="#9aa4b2">Cultural Stage A</text>
    <rect x="40" y="337" width="132" height="26" rx="13" fill="#fff5eb"/>
    <circle cx="56" cy="350" r="4" fill="none" stroke="#ef4b2a" stroke-width="1.4"/>
    <text x="67" y="354" font-family="Inter, Arial, sans-serif" font-size="10" font-weight="900" fill="#ef4b2a">2:00 PM - 5:00 PM</text>
    <text x="297" y="354" font-family="Inter, Arial, sans-serif" font-size="11" font-weight="900" fill="#24272d">Remind</text>
    <path d="M347 344 L353 350 L347 356" fill="none" stroke="#24272d" stroke-width="1.5" stroke-linecap="round" stroke-linejoin="round"/>
  </g>

  <g filter="url(#shadow)">
    <rect x="18" y="408" width="362" height="164" rx="30" fill="#ffffff"/>
    <rect x="40" y="431" width="58" height="72" rx="14" fill="#fffaf4" stroke="#ffe2bd"/>
    <text x="63" y="465" font-family="Inter, Arial, sans-serif" font-size="18" font-weight="900" fill="#ef4b2a">8</text>
    <text x="62" y="483" font-family="Inter, Arial, sans-serif" font-size="9" font-weight="800" fill="#9aa4b2">PM</text>
    <text x="112" y="447" font-family="Inter, Arial, sans-serif" font-size="17" font-weight="900" fill="#24272d">Fireworks Display</text>
    <circle cx="117" cy="467" r="4" fill="none" stroke="#ef4b2a" stroke-width="1.3"/>
    <circle cx="117" cy="467" r="1.1" fill="#ef4b2a"/>
    <text x="130" y="472" font-family="Inter, Arial, sans-serif" font-size="12" font-weight="800" fill="#9aa4b2">Lake Side</text>
    <rect x="40" y="524" width="132" height="26" rx="13" fill="#fff5eb"/>
    <circle cx="56" cy="537" r="4" fill="none" stroke="#ef4b2a" stroke-width="1.4"/>
    <text x="67" y="541" font-family="Inter, Arial, sans-serif" font-size="10" font-weight="900" fill="#ef4b2a">8:00 PM - 9:00 PM</text>
    <text x="297" y="541" font-family="Inter, Arial, sans-serif" font-size="11" font-weight="900" fill="#24272d">Remind</text>
    <path d="M347 531 L353 537 L347 543" fill="none" stroke="#24272d" stroke-width="1.5" stroke-linecap="round" stroke-linejoin="round"/>
  </g>

  <rect x="0" y="612" width="398" height="68" fill="#ffffff"/>
  <rect x="59" y="632" width="12" height="14" rx="2" fill="none" stroke="#d7dde7" stroke-width="2"/>
  <path d="M56 637 H74 M60 629 V634 M70 629 V634" stroke="#d7dde7" stroke-width="2" stroke-linecap="round"/>
  <path d="M148 632 L155 629 L162 632 V648 L155 645 L148 648 Z" fill="none" stroke="#d7dde7" stroke-width="2"/>
  <circle cx="242" cy="639" r="7" fill="none" stroke="#d7dde7" stroke-width="2"/>
  <path d="M247 644 L252 649" stroke="#d7dde7" stroke-width="2" stroke-linecap="round"/>
  <path d="M324 632 H332 C335 632 337 634 337 637 V650 H329 C326 650 324 648 324 645 Z M337 637 C337 634 339 632 342 632 H349 V645 C349 648 347 650 344 650 H337 Z" fill="none" stroke="#d7dde7" stroke-width="2"/>
</svg>
