<svg xmlns="http://www.w3.org/2000/svg" width="1200" height="720" viewBox="0 0 1200 720" role="img" aria-labelledby="title desc">
  <title id="title">Jatre Namma Pride web preview</title>
  <desc id="desc">A visual preview of the Jatre Namma Pride mobile web interface showing event, map, lost-and-found, and culture sections.</desc>
  <rect width="1200" height="720" fill="#fff9f0"/>
  <rect x="70" y="70" width="1060" height="580" rx="28" fill="#ffffff" stroke="#f2d9ca"/>
  <text x="110" y="135" font-family="Inter, Arial, sans-serif" font-size="42" font-weight="800" fill="#d32f2f">Jatre Namma Pride</text>
  <text x="110" y="172" font-family="Inter, Arial, sans-serif" font-size="18" font-weight="600" fill="#7a5c50">Digital guide for schedules, safety, stories, and lost-and-found support</text>

  <rect x="120" y="225" width="275" height="330" rx="24" fill="#d32f2f"/>
  <rect x="120" y="225" width="275" height="115" rx="24" fill="#e64a19"/>
  <text x="148" y="280" font-family="Inter, Arial, sans-serif" font-size="24" font-weight="800" fill="#ffffff">Live Schedule</text>
  <text x="148" y="318" font-family="Inter, Arial, sans-serif" font-size="14" font-weight="700" fill="#ffe5d8">Grand Chariot Procession</text>
  <rect x="148" y="375" width="218" height="52" rx="16" fill="#ffffff" opacity="0.96"/>
  <circle cx="175" cy="401" r="10" fill="#ffd600"/>
  <text x="197" y="407" font-family="Inter, Arial, sans-serif" font-size="14" font-weight="700" fill="#2d2d2d">10:00 AM - Temple Grounds</text>
  <rect x="148" y="448" width="218" height="52" rx="16" fill="#ffffff" opacity="0.86"/>
  <circle cx="175" cy="474" r="10" fill="#ffd600"/>
  <text x="197" y="480" font-family="Inter, Arial, sans-serif" font-size="14" font-weight="700" fill="#2d2d2d">2:00 PM - Cultural Stage</text>

  <rect x="455" y="225" width="275" height="330" rx="24" fill="#f8fafc" stroke="#e5e7eb"/>
  <text x="483" y="280" font-family="Inter, Arial, sans-serif" font-size="24" font-weight="800" fill="#1f2937">Safety Map</text>
  <path d="M488 498 C540 440 562 382 604 352 C646 322 668 286 701 248" fill="none" stroke="#e64a19" stroke-width="10" stroke-linecap="round"/>
  <circle cx="520" cy="456" r="18" fill="#d32f2f"/>
  <circle cx="615" cy="344" r="18" fill="#2563eb"/>
  <circle cx="682" cy="276" r="18" fill="#16a34a"/>
  <rect x="482" y="385" width="205" height="82" rx="18" fill="#ffffff" stroke="#e5e7eb"/>
  <text x="508" y="421" font-family="Inter, Arial, sans-serif" font-size="16" font-weight="800" fill="#d32f2f">Medical Camp B</text>
  <text x="508" y="446" font-family="Inter, Arial, sans-serif" font-size="13" font-weight="600" fill="#6b7280">Main archway, open 24/7</text>

  <rect x="790" y="225" width="275" height="330" rx="24" fill="#ffffff" stroke="#f2d9ca"/>
  <text x="818" y="280" font-family="Inter, Arial, sans-serif" font-size="24" font-weight="800" fill="#1f2937">Lost &amp; Found</text>
  <rect x="818" y="323" width="219" height="64" rx="18" fill="#fff1f2"/>
  <text x="842" y="350" font-family="Inter, Arial, sans-serif" font-size="14" font-weight="800" fill="#d32f2f">LOST</text>
  <text x="842" y="372" font-family="Inter, Arial, sans-serif" font-size="14" font-weight="700" fill="#2d2d2d">Blue backpack near stage</text>
  <rect x="818" y="407" width="219" height="64" rx="18" fill="#eff6ff"/>
  <text x="842" y="434" font-family="Inter, Arial, sans-serif" font-size="14" font-weight="800" fill="#2563eb">FOUND</text>
  <text x="842" y="456" font-family="Inter, Arial, sans-serif" font-size="14" font-weight="700" fill="#2d2d2d">Wallet at food stall</text>
  <rect x="818" y="492" width="219" height="40" rx="14" fill="#e64a19"/>
  <text x="873" y="518" font-family="Inter, Arial, sans-serif" font-size="14" font-weight="800" fill="#ffffff">REPORT ITEM</text>
</svg>
